<svg width="22" height="21" viewBox="0 0 22 21" fill="none" xmlns="http://www.w3.org/2000/svg">
<path fill-rule="evenodd" clip-rule="evenodd" d="M8.36865 19.087C8.41668 19.087 8.45561 19.048 8.45561 19C8.45561 18.952 8.41668 18.913 8.36865 18.913C8.32063 18.913 8.2817 18.952 8.2817 19C8.2817 19.048 8.32063 19.087 8.36865 19.087ZM6.36865 19C6.36865 17.8954 7.26408 17 8.36865 17C9.47322 17 10.3687 17.8954 10.3687 19C10.3687 20.1046 9.47322 21 8.36865 21C7.26408 21 6.36865 20.1046 6.36865 19Z" fill="#1A1A1A"/>
<path fill-rule="evenodd" clip-rule="evenodd" d="M18.376 19.087C18.424 19.087 18.4629 19.048 18.4629 19C18.4629 18.952 18.424 18.913 18.376 18.913C18.328 18.913 18.289 18.952 18.289 19C18.289 19.048 18.328 19.087 18.376 19.087ZM16.376 19C16.376 17.8954 17.2714 17 18.376 17C19.4805 17 20.376 17.8954 20.376 19C20.376 20.1046 19.4805 21 18.376 21C17.2714 21 16.376 20.1046 16.376 19Z" fill="#1A1A1A"/>
<path fill-rule="evenodd" clip-rule="evenodd" d="M0 0.952361C0 0.426386 0.444349 0 0.992481 0H4.63158C5.10462 0 5.51192 0.32036 5.60476 0.765453L6.35555 4.36499H21.0075C21.3033 4.36499 21.5837 4.49158 21.7722 4.71027C21.9608 4.92896 22.0378 5.21695 21.9824 5.49575L20.5254 12.8273C20.3968 13.4485 20.0446 14.0065 19.5305 14.4036C19.0192 14.7986 18.38 15.0094 17.7238 14.9997H8.89783C8.24166 15.0094 7.60249 14.7986 7.09113 14.4036C6.5773 14.0067 6.22525 13.4491 6.09651 12.8283C6.09644 12.828 6.09637 12.8277 6.09631 12.8273L4.57711 5.54383C4.57064 5.5184 4.56524 5.49257 4.56095 5.46639L3.81806 1.90472H0.992481C0.444349 1.90472 0 1.47833 0 0.952361ZM6.75284 6.26971L8.04324 12.4563C8.08105 12.6389 8.18463 12.8031 8.33583 12.9199C8.48703 13.0367 8.67623 13.0987 8.8703 13.0951L8.88932 13.095H17.7323L17.7513 13.0951C17.9454 13.0987 18.1346 13.0367 18.2858 12.9199C18.4362 12.8037 18.5395 12.6406 18.5778 12.4591C18.578 12.4581 18.5782 12.4572 18.5784 12.4563L19.8079 6.26971H6.75284Z" fill="#1A1A1A"/>
</svg>
