<svg width="40" height="40" viewBox="0 0 40 40" fill="none" xmlns="http://www.w3.org/2000/svg">
<path fill-rule="evenodd" clip-rule="evenodd" d="M8.5 20C8.5 19.4477 8.94772 19 9.5 19H30.5C31.0523 19 31.5 19.4477 31.5 20C31.5 20.5523 31.0523 21 30.5 21H9.5C8.94772 21 8.5 20.5523 8.5 20Z" fill="#1A1A1A"/>
<path fill-rule="evenodd" clip-rule="evenodd" d="M8.5 13C8.5 12.4477 8.94772 12 9.5 12H30.5C31.0523 12 31.5 12.4477 31.5 13C31.5 13.5523 31.0523 14 30.5 14H9.5C8.94772 14 8.5 13.5523 8.5 13Z" fill="#1A1A1A"/>
<path fill-rule="evenodd" clip-rule="evenodd" d="M8.5 27C8.5 26.4477 8.94772 26 9.5 26H30.5C31.0523 26 31.5 26.4477 31.5 27C31.5 27.5523 31.0523 28 30.5 28H9.5C8.94772 28 8.5 27.5523 8.5 27Z" fill="#1A1A1A"/>
</svg>
